<?xml version="1.0" encoding="UTF-8"?>
<svg width="1200pt" height="1200pt" version="1.1" viewBox="0 0 1200 1200" xmlns="http://www.w3.org/2000/svg">
 <path d="m751.11 1049.1h-684.02c-9.418-0.015625-18.441-3.7656-25.102-10.426-6.6562-6.6602-10.402-15.688-10.418-25.105v-950.02c-0.10938-3.6055 1.2422-7.1016 3.7539-9.6875 2.5117-2.5898 5.9609-4.0508 9.5664-4.0508 3.6055 0 7.0586 1.4609 9.5664 4.0508 2.5117 2.5859 3.8633 6.082 3.7539 9.6875v950.02c0.035156 4.8711 3.9727 8.8086 8.8438 8.8438h668.6c-6.7617-13.742-12.117-28.133-15.992-42.949h-91.742c-6.4766-0.007812-12.688-2.582-17.27-7.1602-4.5781-4.582-7.1562-10.793-7.1602-17.27v-383.23c0.003906-6.4766 2.582-12.684 7.1602-17.266 4.582-4.5781 10.793-7.1562 17.27-7.1602h110.1-0.003906c6.4766 0.007813 12.684 2.5859 17.262 7.1641 4.5742 4.582 7.1484 10.789 7.1562 17.262v207.36c23.992-29.859 55.09-53.223 90.441-67.961v-346.65c0.007813-6.4727 2.582-12.68 7.1602-17.262 4.5781-4.5781 10.785-7.1562 17.258-7.168h110.1c6.4688 0.019531 12.672 2.5977 17.242 7.1797 4.5703 4.5781 7.1406 10.781 7.1484 17.25v340.64c46.113 15.227 86.164 44.777 114.32 84.348 28.152 39.566 42.941 87.09 42.207 135.65s-16.949 95.613-46.285 134.31c-29.332 38.703-70.258 67.027-116.81 80.855-46.555 13.828-96.305 12.43-142.01-3.9805-45.703-16.414-84.977-46.992-112.09-87.277zm189.26-316.13c-43.695 0.003906-86.035 15.156-119.81 42.879-33.773 27.723-56.887 66.297-65.406 109.15s-1.918 87.336 18.684 125.87c20.602 38.535 53.926 68.73 94.297 85.445 40.367 16.715 85.285 18.914 127.1 6.2266 41.809-12.691 77.926-39.484 102.2-75.82 24.27-36.332 35.188-79.957 30.898-123.44-4.293-43.48-23.527-84.129-54.43-115.02-17.516-17.562-38.328-31.488-61.246-40.98-22.914-9.4922-47.477-14.363-72.281-14.332zm114.7 74.148c-35.66-35.66-85.875-52.711-135.88-46.129-50 6.5781-94.094 36.039-119.31 79.715-25.219 43.672-28.688 96.59-9.3906 143.18 19.297 46.59 59.168 81.559 107.88 94.613 48.711 13.055 100.72 2.7109 140.73-27.984 40.012-30.699 63.469-78.262 63.473-128.69 0.058593-43.035-17.039-84.316-47.508-114.71zm-225.34 116.93 72.277 72.266c2.4961 2.5 5.8867 3.9023 9.418 3.9023s6.918-1.4023 9.418-3.9023l130.11-130.11c5.2031-5.2031 5.2031-13.641 0-18.848-5.207-5.2031-13.645-5.2031-18.848 0l-120.73 120.73-62.844-62.844h0.003906c-5.2383-4.9766-13.488-4.875-18.602 0.23438-5.1094 5.1094-5.2188 13.359-0.24609 18.602zm110.64-230.29c15.043-0.003906 30.051 1.4727 44.805 4.4062v-331.4h-105.65v335.22c19.82-5.4727 40.285-8.2383 60.848-8.2227zm-225.95 259.1c-6.1484-45.125 1.2969-91.062 21.383-131.94v-246.89h-105.65v378.83zm368.38-173.45c-32.953-32.953-76.309-53.461-122.68-58.031-46.379-4.5664-92.902 7.0859-131.65 32.973-38.746 25.891-67.32 64.414-80.848 109.01s-11.176 92.496 6.6562 135.55c17.832 43.055 50.043 78.594 91.141 100.56 41.098 21.965 88.539 29.004 134.25 19.914 45.703-9.0898 86.844-33.75 116.41-69.773 29.562-36.02 45.723-81.18 45.723-127.78 0.03125-26.453-5.1641-52.652-15.285-77.094-10.125-24.441-24.977-46.641-43.703-65.328zm-249.34-612.82-159.47 146.26-239.04-106.85c-4.332-1.9375-9.375-1.4062-13.211 1.3906l-274.39 200.1c-7.5938 5.543-12.676 13.875-14.133 23.164-1.4531 9.2852 0.83203 18.773 6.3633 26.375l12.734 17.469c0.48828 0.82812 1.0703 1.6016 1.7305 2.3008 5.5273 6.9102 13.438 11.504 22.176 12.879 8.7422 1.375 17.68-0.5625 25.066-5.4375 0.83984-0.47266 1.6289-1.0352 2.3477-1.6797l235.63-171.78 244.75 109.36c4.8242 2.1484 10.461 1.2344 14.363-2.3242l197.89-181.43 41.332 45.941h-0.003906c3.4531 3.8555 8.832 5.3516 13.777 3.8359 4.9453-1.5156 8.5625-5.7695 9.2617-10.895l23.836-168.53c0.10156-0.73828 0.14062-1.4805 0.11719-2.2227-0.10937-3.5195-1.6133-6.8516-4.1797-9.2617-2.5664-2.4141-5.9844-3.707-9.5039-3.5977l-169.26 5.8867c-5.3164-0.14062-10.207 2.8945-12.438 7.7266-2.2305 4.8281-1.375 10.523 2.1797 14.48l42.152 46.852zm-3.3203-43.477 31.906 35.469c4.875 5.4141 4.4844 13.746-0.87109 18.684l-175.58 161.07-0.003906-0.003906c-3.8945 3.5938-9.5586 4.5234-14.398 2.3633l-240-107.3-268.24 195.54c-3.9492 2.9375-4.8164 8.4961-1.9453 12.492l13.492 18.504-0.003906 0.003906c2.9375 3.9453 8.4961 4.8125 12.492 1.9453l242.29-176.67c3.8828-3.1719 9.2227-3.8867 13.805-1.8438l243.79 108.98 200.58-183.88c0.26563-0.29297 0.54688-0.57422 0.84375-0.83594 5.4609-4.9141 13.871-4.4727 18.785 0.98828l31.227 34.711 17.605-124.55-125.77 4.3711zm-451.58 323.08c-6.4766 0.003906-12.688 2.582-17.266 7.1602-4.582 4.582-7.1562 10.793-7.1641 17.27v484.45c0.007812 6.4766 2.582 12.688 7.1641 17.266 4.5781 4.582 10.789 7.1562 17.266 7.1641h110.1c6.4766-0.011719 12.684-2.5898 17.258-7.168 4.5781-4.5781 7.1523-10.789 7.1602-17.262v-484.45c-0.007812-6.4766-2.582-12.684-7.1602-17.266-4.5742-4.5781-10.781-7.1562-17.258-7.1641zm107.88 26.652h-105.66v480h105.66zm-357.26 138.4c-6.4727 0.011719-12.68 2.5859-17.254 7.1641-4.5781 4.5781-7.1523 10.781-7.1641 17.254v319.4c0.007813 6.4727 2.582 12.684 7.1562 17.262 4.5781 4.5781 10.785 7.1562 17.262 7.168h110.1-0.003906c6.4805-0.007813 12.688-2.582 17.27-7.1641 4.5781-4.5781 7.1562-10.789 7.1602-17.266v-319.4c-0.007812-6.4766-2.5859-12.68-7.1641-17.258-4.582-4.5781-10.789-7.1523-17.266-7.1602zm107.88 26.641h-105.68v314.97h105.65z" fill-rule="evenodd"/>
</svg>
