<?xml version="1.0" encoding="UTF-8"?>
<svg width="1200pt" height="1200pt" version="1.1" viewBox="0 0 1200 1200" xmlns="http://www.w3.org/2000/svg">
 <path d="m1087.1 528.48c-2.8789 0-5.7617 0.23828-8.5195 0.48047-20.762-31.922-55.078-60.719-101.28-85.32 15.238-50.039 19.199-94.68 11.281-132 2.1602-1.8008 4.3203-3.6016 6.3594-5.6406 13.441-13.441 20.879-31.441 20.879-50.52s-7.4414-37.078-20.879-50.52c-13.441-13.441-31.441-20.879-50.52-20.879-19.078 0-37.078 7.4414-50.52 20.879-2.0391 2.0391-3.8398 4.1992-5.6406 6.3594-37.199-7.9219-81.961-3.9609-132 11.281-24.602-46.199-53.398-80.52-85.32-101.28 0.35938-2.7617 0.48047-5.6406 0.48047-8.5195 0-39.359-32.039-71.52-71.52-71.52-39.359 0-71.52 32.039-71.52 71.52 0 2.8789 0.23828 5.7617 0.48047 8.5195-31.922 20.762-60.719 55.078-85.32 101.28-50.039-15.238-94.68-19.199-132-11.281-1.8008-2.1602-3.6016-4.3203-5.6406-6.3594-13.441-13.441-31.441-20.879-50.52-20.879s-37.078 7.4414-50.52 20.879c-13.441 13.441-20.879 31.441-20.879 50.52s7.4414 37.078 20.879 50.52c2.0391 2.0391 4.1992 3.8398 6.3594 5.6406-7.9219 37.199-3.9609 81.961 11.281 132-46.199 24.602-80.52 53.398-101.28 85.32-2.7617-0.35938-5.6406-0.48047-8.5195-0.48047-39.359 0-71.52 32.039-71.52 71.52 0 39.359 32.039 71.52 71.52 71.52 2.8789 0 5.7617-0.23828 8.5195-0.48047 20.762 31.922 55.078 60.719 101.28 85.32-15.238 50.039-19.199 94.68-11.281 132-2.1602 1.8008-4.3203 3.6016-6.3594 5.6406-13.441 13.441-20.879 31.441-20.879 50.52s7.4414 37.078 20.879 50.52c13.441 13.441 31.441 20.879 50.52 20.879s37.078-7.4414 50.52-20.879c2.0391-2.0391 3.9609-4.1992 5.6406-6.3594 12.48 2.6406 25.922 3.9609 40.078 3.9609 27.84 0 58.68-5.1602 91.922-15.238 24.602 46.199 53.398 80.52 85.32 101.28-0.35938 2.7617-0.48047 5.6406-0.48047 8.5195 0 39.359 32.039 71.52 71.52 71.52 39.359 0 71.52-32.039 71.52-71.52 0-2.8789-0.23828-5.7617-0.48047-8.5195 31.922-20.762 60.719-55.199 85.32-101.28 33.238 10.078 64.078 15.238 91.922 15.238 14.16 0 27.48-1.3203 40.078-3.9609 1.8008 2.1602 3.6016 4.3203 5.6406 6.3594 13.441 13.441 31.441 20.879 50.52 20.879 19.078 0 37.078-7.4414 50.52-20.879 13.441-13.441 20.879-31.441 20.879-50.52s-7.4414-37.078-20.879-50.52c-2.0391-2.0391-4.1992-3.8398-6.3594-5.6406 7.9219-37.199 3.9609-81.961-11.281-132 46.199-24.602 80.52-53.398 101.28-85.32 2.7617 0.35938 5.6406 0.48047 8.5195 0.48047 39.359 0 71.52-32.039 71.52-71.52 0.003906-39.359-32.039-71.52-71.52-71.52zm-173.52-303.84c8.2812-8.2812 19.199-12.84 30.84-12.84 11.641 0 22.68 4.5586 30.84 12.84 8.2812 8.2812 12.84 19.199 12.84 30.84s-4.5586 22.68-12.84 30.84c-8.2812 8.2812-19.199 12.84-30.84 12.84-11.641 0-22.68-4.5586-30.84-12.84-8.2812-8.2812-12.84-19.199-12.84-30.84 0.12109-11.641 4.5625-22.559 12.84-30.84zm-38.277 12.598c-1.5586 5.8789-2.3984 12-2.3984 18.238 0 19.078 7.4414 37.078 20.879 50.52 13.441 13.441 31.441 20.879 50.52 20.879 6.2383 0 12.359-0.83984 18.238-2.3984 4.6797 30 0.96094 66.238-10.801 106.44-14.52-6.7188-30.121-12.961-46.559-18.84-28.801-10.32-59.52-18.961-91.68-26.039-7.0781-32.16-15.719-62.879-26.039-91.68-5.8789-16.441-12.238-31.922-18.84-46.559 40.559-11.402 76.797-15.242 106.68-10.562zm-133.08 705.96c-15.238-5.5195-30.961-12.121-47.039-19.68-23.16-10.922-46.441-23.762-69.719-38.16 23.762-16.441 47.398-34.441 70.559-53.879 30.121-2.6406 59.52-6.6016 87.84-11.762-6.2383 26.641-13.68 52.199-22.32 76.199-6 16.801-12.48 32.641-19.32 47.281zm-303.72-47.16c-8.6406-24.121-16.078-49.68-22.32-76.199 28.32 5.1602 57.719 9.1211 87.84 11.762 23.281 19.441 46.801 37.441 70.559 53.879-23.281 14.398-46.559 27.238-69.719 38.16-16.078 7.5586-31.801 14.16-47.039 19.68-6.8398-14.762-13.32-30.602-19.32-47.281zm19.32-639.24c15.238 5.5195 30.961 12.121 47.039 19.68 23.16 10.922 46.441 23.762 69.719 38.16-23.762 16.441-47.398 34.441-70.559 53.879-30.121 2.6406-59.52 6.6016-87.84 11.762 6.2383-26.641 13.68-52.199 22.32-76.199 6-16.801 12.48-32.641 19.32-47.281zm303.72 47.16c8.6406 24.121 16.078 49.68 22.32 76.199-28.32-5.1602-57.719-9.1211-87.84-11.762-23.281-19.441-46.801-37.441-70.559-53.879 23.281-14.398 46.559-27.238 69.719-38.16 16.078-7.5586 31.801-14.16 47.039-19.68 6.8398 14.762 13.32 30.602 19.32 47.281zm46.559 296.04c0 28.801-1.1992 57.121-3.3594 84.719-18 21.121-37.199 42-57.602 62.281-20.398 20.398-41.16 39.602-62.281 57.602-27.719 2.2812-56.039 3.3594-84.719 3.3594-28.801 0-57.121-1.1992-84.719-3.3594-21.121-18-42-37.199-62.281-57.602-20.398-20.398-39.602-41.16-57.602-62.281-2.2812-27.719-3.3594-56.039-3.3594-84.719s1.1992-57.121 3.3594-84.719c18-21.121 37.199-42 57.602-62.281 20.398-20.398 41.16-39.602 62.281-57.602 27.719-2.2812 56.039-3.3594 84.719-3.3594 28.801 0 57.121 1.1992 84.719 3.3594 21.121 18 42 37.199 62.281 57.602 20.398 20.398 39.602 41.16 57.602 62.281 2.1602 27.598 3.3594 55.918 3.3594 84.719zm-41.277-166.8c-11.281-11.281-22.801-22.32-34.32-32.879 19.68 2.5195 39 5.6406 57.84 9.3594 3.7188 18.84 6.8398 38.16 9.3594 57.84-10.68-11.52-21.602-23.039-32.879-34.32zm-119.28-68.039c-15.719-0.71875-31.559-1.0781-47.52-1.0781s-31.801 0.35938-47.52 1.0781c15.719-12.121 31.68-23.641 47.52-34.32 15.961 10.801 31.801 22.199 47.52 34.32zm-180 35.16c-11.52 10.68-23.039 21.602-34.32 32.879-11.281 11.281-22.32 22.801-32.879 34.32 2.5195-19.68 5.6406-39 9.3594-57.84 18.84-3.6016 38.16-6.7188 57.84-9.3594zm-99.121 103.68c-19.441 23.281-37.441 46.801-53.879 70.559-14.398-23.281-27.238-46.559-38.16-69.719-7.5586-16.078-14.16-31.801-19.68-47.039 14.641-6.8398 30.48-13.32 47.16-19.32 24.121-8.6406 49.68-16.078 76.199-22.32-5.0391 28.32-9 57.719-11.641 87.84zm-3.2383 48.48c-0.71875 15.719-1.0781 31.559-1.0781 47.52s0.35938 31.801 1.0781 47.52c-12.121-15.719-23.641-31.68-34.32-47.52 10.801-15.961 22.199-31.801 34.32-47.52zm3.2383 143.52c2.6406 30.121 6.6016 59.52 11.762 87.84-26.641-6.2383-52.199-13.68-76.199-22.32-16.68-6-32.52-12.48-47.16-19.32 5.5195-15.238 12.121-30.961 19.68-47.039 10.922-23.16 23.762-46.441 38.16-69.719 16.32 23.758 34.32 47.277 53.758 70.559zm31.922 36.48c10.68 11.52 21.602 23.039 32.879 34.32 11.281 11.281 22.801 22.32 34.32 32.879-19.68-2.5195-39-5.6406-57.84-9.3594-3.6016-18.84-6.7188-38.16-9.3594-57.84zm152.16 102.36c15.719 0.71875 31.559 1.0781 47.52 1.0781s31.801-0.35938 47.52-1.0781c-15.719 12.121-31.68 23.641-47.52 34.32-15.961-10.801-31.801-22.199-47.52-34.32zm180-35.16c11.52-10.68 23.039-21.602 34.32-32.879 11.281-11.281 22.32-22.801 32.879-34.32-2.5195 19.68-5.6406 39-9.3594 57.84-18.84 3.6016-38.16 6.7188-57.84 9.3594zm99.121-103.68c19.441-23.281 37.441-46.801 53.879-70.559 14.398 23.281 27.238 46.559 38.16 69.719 7.5586 16.078 14.16 31.801 19.68 47.039-14.641 6.8398-30.48 13.32-47.16 19.32-24.121 8.6406-49.68 16.078-76.199 22.32 5.0391-28.32 9-57.719 11.641-87.84zm3.2383-48.48c0.71875-15.719 1.0781-31.559 1.0781-47.52s-0.35938-31.801-1.0781-47.52c12.121 15.719 23.641 31.68 34.32 47.52-10.801 15.961-22.199 31.801-34.32 47.52zm-3.2383-143.52c-2.6406-30.121-6.6016-59.52-11.762-87.84 26.641 6.2383 52.199 13.68 76.199 22.32 16.68 6 32.52 12.48 47.16 19.32-5.5195 15.238-12.121 30.961-19.68 47.039-10.922 23.16-23.762 46.441-38.16 69.719-16.32-23.758-34.32-47.277-53.758-70.559zm-231.6-434.76c24.121 0 43.68 19.559 43.68 43.68 0 24.121-19.559 43.68-43.68 43.68s-43.68-19.559-43.68-43.68c0-24.117 19.559-43.68 43.68-43.68zm-61.801 79.562c12.359 21.238 35.398 35.52 61.801 35.52 26.281 0 49.32-14.281 61.801-35.52 24.48 17.879 47.52 46.199 67.68 82.922-15 5.5195-30.48 12.121-46.199 19.559-27.602 13.078-55.441 28.559-83.281 46.32-27.719-17.762-55.559-33.238-83.281-46.32-15.84-7.4414-31.199-14.039-46.199-19.559 20.16-36.723 43.199-65.043 67.68-82.922zm-313.56 75.84c8.2812-8.2812 19.199-12.84 30.84-12.84s22.68 4.5586 30.84 12.84c8.2812 8.2812 12.84 19.199 12.84 30.84s-4.5586 22.68-12.84 30.84c-8.2812 8.2812-19.199 12.84-30.84 12.84s-22.68-4.5586-30.84-12.84c-8.2812-8.2812-12.84-19.199-12.84-30.84 0.12109-11.641 4.6797-22.559 12.84-30.84zm12.598 100.08c5.8789 1.5586 12 2.3984 18.238 2.3984 19.078 0 37.078-7.4414 50.52-20.879 13.441-13.441 20.879-31.441 20.879-50.52 0-6.2383-0.83984-12.359-2.3984-18.238 30-4.6797 66.238-0.96094 106.44 10.801-6.7188 14.52-12.961 30.121-18.84 46.559-10.32 28.801-18.961 59.52-26.039 91.68-32.16 7.0781-62.879 15.719-91.68 26.039-16.441 5.8789-31.922 12.238-46.559 18.84-11.402-40.559-15.242-76.797-10.562-106.68zm-168 275.28c0-24.121 19.559-43.68 43.68-43.68 24.121 0 43.68 19.559 43.68 43.68s-19.559 43.68-43.68 43.68c-24.117 0-43.68-19.559-43.68-43.68zm79.562 61.801c21.238-12.359 35.52-35.398 35.52-61.801 0-26.281-14.281-49.32-35.52-61.801 17.879-24.48 46.199-47.52 82.922-67.68 5.5195 15 12.121 30.48 19.559 46.199 13.078 27.602 28.559 55.441 46.32 83.281-17.762 27.719-33.238 55.559-46.32 83.281-7.4414 15.84-14.039 31.199-19.559 46.199-36.723-20.16-65.043-43.199-82.922-67.68zm137.64 313.56c-8.2812 8.2812-19.199 12.84-30.84 12.84-11.641 0-22.68-4.5586-30.84-12.84-8.2812-8.2812-12.84-19.199-12.84-30.84s4.5586-22.68 12.84-30.84c8.2812-8.2812 19.199-12.84 30.84-12.84 11.641 0 22.68 4.5586 30.84 12.84 8.2812 8.2812 12.84 19.199 12.84 30.84-0.12109 11.641-4.5625 22.559-12.84 30.84zm38.277-12.598c1.5586-5.8789 2.3984-12 2.3984-18.238 0-19.078-7.4414-37.078-20.879-50.52-13.441-13.441-31.441-20.879-50.52-20.879-6.2383 0-12.359 0.83984-18.238 2.3984-4.6797-30-0.96094-66.238 10.801-106.44 14.52 6.7188 30.121 12.961 46.559 18.84 28.801 10.32 59.52 18.961 91.68 26.039 7.0781 32.16 15.719 62.879 26.039 91.68 5.8789 16.441 12.238 31.922 18.84 46.559-40.559 11.402-76.797 15.242-106.68 10.562zm275.28 168c-24.121 0-43.68-19.559-43.68-43.68 0-24.121 19.559-43.68 43.68-43.68s43.68 19.559 43.68 43.68c0 24.117-19.559 43.68-43.68 43.68zm61.801-79.562c-12.359-21.238-35.398-35.52-61.801-35.52-26.281 0-49.32 14.281-61.801 35.52-24.48-17.879-47.52-46.199-67.68-82.922 15-5.5195 30.48-12.121 46.199-19.559 27.602-13.078 55.441-28.559 83.281-46.32 27.719 17.762 55.559 33.238 83.281 46.32 15.84 7.4414 31.199 14.039 46.199 19.559-20.16 36.723-43.199 65.043-67.68 82.922zm313.56-75.84c-8.2812 8.2812-19.199 12.84-30.84 12.84s-22.68-4.5586-30.84-12.84c-8.1602-8.2812-12.84-19.199-12.84-30.84s4.5586-22.68 12.84-30.84c8.2812-8.1602 19.199-12.84 30.84-12.84s22.68 4.5586 30.84 12.84c8.2812 8.2812 12.84 19.199 12.84 30.84s-4.6797 22.559-12.84 30.84zm-12.598-100.08c-5.8789-1.5586-12-2.3984-18.238-2.3984-19.078 0-37.078 7.4414-50.52 20.879-13.441 13.441-20.879 31.441-20.879 50.52 0 6.2383 0.83984 12.359 2.3984 18.238-30 4.6797-66.238 0.96094-106.44-10.801 6.7188-14.52 12.961-30.121 18.84-46.559 10.32-28.801 18.961-59.52 26.039-91.68 32.16-7.0781 62.879-15.719 91.68-26.039 16.441-5.8789 31.922-12.238 46.559-18.84 11.402 40.559 15.242 76.797 10.562 106.68zm5.5195-145.8c-5.5195-15-12.121-30.48-19.559-46.199-13.078-27.602-28.559-55.441-46.32-83.281 17.762-27.719 33.238-55.559 46.32-83.281 7.4414-15.84 14.039-31.199 19.559-46.199 36.719 20.16 65.039 43.199 82.922 67.68-21.238 12.359-35.52 35.398-35.52 61.801 0 26.281 14.281 49.32 35.52 61.801-17.883 24.48-46.203 47.52-82.922 67.68zm118.8-85.801c-24.121 0-43.68-19.559-43.68-43.68s19.559-43.68 43.68-43.68 43.68 19.559 43.68 43.68c0.003907 24.121-19.559 43.68-43.68 43.68zm-487.08-202.2c-54.602 0-147 10.559-147 50.281v218.04c0 39.719 92.398 50.281 147 50.281s147-10.559 147-50.281v-218.04c0-39.723-92.398-50.281-147-50.281zm0 27.84c71.641 0 111 14.879 118.44 22.441-7.3203 7.5586-46.68 22.441-118.44 22.441s-111-14.879-118.44-22.441c7.4414-7.5625 46.801-22.441 118.44-22.441zm119.16 94.199c-4.8008 7.1992-44.281 23.398-119.16 23.398s-114.36-16.199-119.16-23.398v-40.199c31.559 14.281 83.398 18.719 119.16 18.719 35.641 0 87.48-4.5586 119.16-18.719zm0 72.719c-4.8008 7.1992-44.281 23.398-119.16 23.398s-114.36-16.199-119.16-23.398v-40.199c31.559 14.281 83.398 18.719 119.16 18.719 35.641 0 87.48-4.5586 119.16-18.719zm-119.16 96c-74.762 0-114.24-16.078-119.16-23.281v-40.32c31.559 14.281 83.398 18.719 119.16 18.719 35.641 0 87.48-4.5586 119.16-18.719v40.32c-4.9219 7.2031-44.398 23.281-119.16 23.281z"/>
</svg>
