<?xml version="1.0" encoding="UTF-8"?>
<svg width="1200pt" height="1200pt" version="1.1" viewBox="0 0 1200 1200" xmlns="http://www.w3.org/2000/svg">
 <path d="m1162.5 277.07c0-54.438-141.62-56-157.77-56-16.148 0-157.76 1.5742-157.76 56v281.59c0 54.438 141.62 56.012 157.76 56.012 16.148 0.003906 157.77-1.5703 157.77-56.008v-281.56-0.027343zm-33.949 187.76c-7.3516 8.8359-53.062 23.664-123.82 23.664-70.762 0-116.48-14.824-123.82-23.664v-60.852c42.977 17.914 112.77 18.648 123.82 18.648 11.051 0 80.852-0.73828 123.82-18.648zm0-99.812c-7.3516 8.8359-53.062 23.664-123.82 23.664-70.762 0-116.48-14.824-123.82-23.664v-50.586c42.977 17.914 112.77 18.648 123.82 18.648 11.051 0 80.852-0.73828 123.82-18.648zm-123.82-110.01c66.461 0 110.89 13.125 122.11 22.062-11.227 8.9375-55.637 22.062-122.11 22.062-66.461 0-110.89-13.125-122.11-22.062 11.223-8.9375 55.648-22.062 122.11-22.062zm0 325.71c-70.738 0-116.44-14.812-123.82-23.648v-53.273c42.977 17.914 112.77 18.648 123.82 18.648 11.051 0 80.852-0.73828 123.82-18.648v53.273c-7.375 8.8359-53.09 23.648-123.82 23.648zm11.785-219.3c-0.53906-9.3633 6.6133-17.375 15.977-17.914 10.312-0.58594 20.477-1.5391 30.199-2.8125 9.3008-1.2109 17.812 5.3242 19.039 14.613 1.2266 9.2891-5.3242 17.812-14.613 19.039-10.539 1.3867-21.539 2.4141-32.676 3.0508-0.32422 0.023437-0.66406 0.023437-0.98828 0.023437-8.9375 0-16.41-6.9766-16.938-16zm67.363-6.3242c-2.3242-9.0742 3.1367-18.324 12.227-20.664 1.2734-0.32422 2.5234-0.66406 3.75-1 9.0234-2.5117 18.387 2.7617 20.898 11.801 2.5117 9.0234-2.7734 18.387-11.801 20.898-1.4375 0.39844-2.9141 0.80078-4.4258 1.1758-1.4141 0.36328-2.8359 0.53906-4.2266 0.53906-7.5586 0.011719-14.445-5.0781-16.422-12.75zm-67.363 99.398c-0.53906-9.3633 6.6133-17.375 15.977-17.914 10.336-0.58594 20.5-1.5391 30.199-2.8125 9.2891-1.2266 17.812 5.3242 19.039 14.613 1.2266 9.2891-5.3242 17.812-14.613 19.039-10.512 1.375-21.512 2.3984-32.676 3.0508-0.32422 0.023438-0.66406 0.023438-0.98828 0.023438-8.9375 0-16.41-6.9766-16.938-16zm67.363-6.3242c-2.3242-9.0742 3.1367-18.324 12.227-20.664 1.2734-0.32422 2.5391-0.66406 3.7617-1 9.0391-2.5 18.387 2.7891 20.887 11.812 2.5117 9.0391-2.7891 18.387-11.812 20.887-1.4375 0.39844-2.9141 0.78906-4.4141 1.1758-1.4141 0.36328-2.8359 0.53906-4.2266 0.53906-7.5586 0.011719-14.445-5.0898-16.422-12.75zm-2.1484 95.148c1.2266 9.2891-5.3242 17.812-14.625 19.039-10.551 1.3867-21.539 2.4141-32.676 3.0508-0.32422 0.023438-0.66406 0.023438-0.98828 0.023438-8.9258 0-16.414-6.9766-16.926-16-0.53906-9.3633 6.6133-17.375 15.977-17.914 10.312-0.58594 20.477-1.5391 30.199-2.8125 9.3008-1.2109 17.812 5.3281 19.039 14.613zm39.023-10.074c2.5117 9.0234-2.7734 18.387-11.801 20.898-1.4375 0.39844-2.9141 0.78906-4.4141 1.1758-1.4141 0.36328-2.8359 0.53906-4.2383 0.53906-7.5625 0-14.449-5.0859-16.426-12.75-2.3359-9.0742 3.125-18.324 12.199-20.664 1.2734-0.33594 2.5391-0.66406 3.7617-1.0117 9.043-2.5 18.406 2.7891 20.918 11.812zm-767.71 25.414v-281.56-0.023437c0-54.438-141.62-56-157.77-56-16.152-0.003906-157.77 1.5586-157.77 55.996v281.59c0 54.438 141.62 56.012 157.76 56.012 16.137 0.003906 157.78-1.5703 157.78-56.008zm-33.938-193.64c-7.3516 8.8359-53.062 23.664-123.82 23.664-70.762 0-116.48-14.824-123.82-23.664v-50.586c42.977 17.914 112.77 18.648 123.82 18.648 11.051 0 80.852-0.73828 123.82-18.648zm-247.65 38.965c42.977 17.914 112.77 18.648 123.82 18.648 11.051 0 80.852-0.73828 123.82-18.648v60.852c-7.3516 8.8359-53.062 23.664-123.82 23.664-70.762 0-116.48-14.824-123.82-23.664zm123.82-148.98c66.461 0 110.89 13.125 122.11 22.062-11.227 8.9375-55.637 22.062-122.11 22.062-66.477 0-110.89-13.125-122.11-22.062 11.227-8.9375 55.641-22.062 122.11-22.062zm-123.82 302.06v-53.273c42.977 17.914 112.77 18.648 123.82 18.648 11.051 0 80.852-0.73828 123.82-18.648v53.273c-7.3867 8.8359-53.086 23.648-123.82 23.648-70.734 0.003906-116.45-14.809-123.82-23.648zm135.61-195.65c-0.53906-9.3633 6.6133-17.375 15.977-17.914 10.312-0.58594 20.477-1.5391 30.199-2.8125 9.3008-1.2109 17.812 5.3242 19.039 14.613 1.2266 9.2891-5.3242 17.812-14.613 19.039-10.539 1.3867-21.539 2.4141-32.676 3.0508-0.32422 0.023437-0.66406 0.023437-0.98828 0.023437-8.9375 0-16.426-6.9766-16.938-16zm67.363-6.3242c-2.3242-9.0742 3.1367-18.324 12.227-20.664 1.2734-0.32422 2.5234-0.66406 3.7617-1 9.0391-2.5117 18.387 2.7734 20.898 11.801 2.5117 9.0234-2.7734 18.387-11.801 20.898-1.4492 0.39844-2.9141 0.80078-4.4141 1.1758-1.4141 0.36328-2.8359 0.53906-4.2266 0.53906-7.582 0.011719-14.484-5.0781-16.445-12.75zm-67.363 99.398c-0.53906-9.3633 6.6133-17.375 15.977-17.914 10.336-0.58594 20.5-1.5391 30.199-2.8125 9.2891-1.2266 17.812 5.3242 19.039 14.613 1.2266 9.2891-5.3242 17.812-14.613 19.039-10.512 1.375-21.512 2.3984-32.676 3.0508-0.32422 0.023438-0.66406 0.023438-0.98828 0.023438-8.9375 0-16.426-6.9766-16.938-16zm67.363-6.3242c-2.3242-9.0742 3.1367-18.324 12.227-20.664 1.2734-0.32422 2.5391-0.66406 3.7734-1.0117 9.0234-2.5117 18.387 2.7891 20.887 11.824 2.5 9.0391-2.7891 18.387-11.824 20.887-1.4375 0.39844-2.9141 0.78906-4.3984 1.1758-1.4141 0.36328-2.8359 0.53906-4.2266 0.53906-7.5742 0.011719-14.477-5.0898-16.438-12.75zm-67.363 101.26c-0.53906-9.3633 6.6133-17.375 15.977-17.914 10.312-0.58594 20.477-1.5391 30.199-2.8125 9.2891-1.1992 17.812 5.3242 19.039 14.625 1.2266 9.2891-5.3242 17.812-14.625 19.039-10.551 1.3867-21.539 2.4141-32.676 3.0508-0.32422 0.023438-0.66406 0.023438-0.98828 0.023438-8.9258-0.011719-16.414-6.9883-16.926-16.012zm67.363-6.3125c-2.3359-9.0742 3.125-18.324 12.199-20.664 1.2734-0.33594 2.5391-0.66406 3.7734-1.0117 9.0391-2.5 18.387 2.7734 20.898 11.801 2.5117 9.0234-2.7734 18.387-11.801 20.898-1.4375 0.39844-2.9141 0.78906-4.3984 1.1758-1.4141 0.36328-2.8359 0.53906-4.2383 0.53906-7.5703 0.011719-14.461-5.0742-16.434-12.738zm325.57-287.95c-77.699 0-209.19 14.801-209.19 70.262v384.43c0 25.051 26.762 44.164 79.551 56.824 1.3242 0.32422 2.6641 0.47656 3.9766 0.47656 7.6641 0 14.625-5.2383 16.488-13.012 2.1875-9.1133-3.4375-18.273-12.551-20.461-39.977-9.5859-52.227-20.711-53.523-24.086v-84.238c44.25 21.977 122.25 28.863 175.24 28.863 52.988 0 130.99-6.8867 175.24-28.863v84.238c-1.3359 3.4766-14.086 14.949-55.812 24.625-9.125 2.125-14.812 11.238-12.699 20.363 1.8125 7.8359 8.8008 13.137 16.512 13.137 1.2734 0 2.5625-0.13672 3.8516-0.4375 54.477-12.637 82.086-31.949 82.086-57.426l-0.003907-384.41v-0.039063c0.023438-55.445-131.46-70.246-209.16-70.246zm175.24 192.24c-1.2266 3.1641-12.551 13.664-49.312 23.039-34.227 8.7344-78.949 13.547-125.93 13.547-46.988 0-91.699-4.8125-125.93-13.539-36.762-9.375-48.074-19.875-49.312-23.039v-80.586c44.25 21.977 122.25 28.863 175.24 28.863s130.99-6.8867 175.24-28.863zm-300.93-144.77c34.273-8.7266 78.914-13.539 125.69-13.539s91.426 4.8125 125.69 13.539c35.762 9.1133 47.586 19.289 49.414 22.773-1.8242 3.4883-13.648 13.664-49.414 22.773-34.262 8.7422-78.898 13.555-125.69 13.555s-91.426-4.8125-125.69-13.539c-35.762-9.1133-47.586-19.289-49.414-22.773 1.8281-3.5 13.652-13.676 49.414-22.789zm251.61 304.08c-34.227 8.7266-78.949 13.539-125.93 13.539-46.988 0-91.699-4.8125-125.93-13.539-36.762-9.375-48.074-19.875-49.312-23.039v-94.602c44.25 21.977 122.25 28.863 175.24 28.863s130.99-6.8867 175.24-28.863v94.602c-1.2266 3.1641-12.551 13.664-49.312 23.039zm-103.65-166.49c-0.53906-9.3633 6.6133-17.375 15.977-17.914 14.262-0.8125 28.289-2.125 41.676-3.8867 9.3008-1.2109 17.812 5.3242 19.039 14.613 1.2266 9.2891-5.3242 17.812-14.613 19.039-14.211 1.8633-29.074 3.25-44.148 4.1133-0.32422 0.023437-0.66406 0.023437-0.98828 0.023437-8.9414 0.011719-16.414-6.9648-16.941-15.988zm91.777-9.8242c-2.3242-9.0742 3.1484-18.324 12.238-20.648 1.7734-0.44922 3.5234-0.92578 5.2383-1.3984 9.0391-2.5117 18.387 2.7617 20.898 11.801 2.5117 9.0234-2.7617 18.387-11.801 20.898-1.9375 0.53906-3.9141 1.0625-5.9258 1.5859-1.4141 0.36328-2.8242 0.53906-4.2266 0.53906-7.5586-0.015625-14.461-5.1172-16.422-12.777zm-15.09 129.7c1.2266 9.2891-5.3242 17.812-14.613 19.039-14.211 1.8633-29.062 3.25-44.148 4.1133-0.32422 0.023437-0.66406 0.023437-0.98828 0.023437-8.9258 0-16.414-6.9766-16.926-16-0.53906-9.3633 6.6133-17.375 15.977-17.914 14.262-0.82422 28.289-2.125 41.676-3.8867 9.2734-1.1992 17.812 5.3242 19.023 14.625zm53.465-12.887c2.5117 9.0234-2.7734 18.387-11.812 20.898-1.9375 0.53906-3.9141 1.0625-5.9141 1.5742-1.4141 0.36328-2.8242 0.53906-4.2266 0.53906-7.5625 0-14.461-5.1016-16.426-12.762-2.3242-9.0742 3.1484-18.324 12.238-20.648 1.7891-0.46094 3.5391-0.92578 5.25-1.3984 9.0391-2.5156 18.391 2.7578 20.891 11.797zm-130.15 149.67c-0.53906-9.3633 6.6133-17.375 15.977-17.914 14.238-0.8125 28.262-2.125 41.688-3.8867 9.3008-1.2109 17.812 5.3242 19.039 14.625 1.2266 9.2891-5.3242 17.812-14.625 19.039-14.238 1.8633-29.102 3.25-44.148 4.1133-0.32422 0.023438-0.66406 0.023438-0.98828 0.023438-8.9414 0-16.414-6.9727-16.941-16zm91.777-9.8242c-2.3242-9.0742 3.1484-18.324 12.238-20.648 1.7891-0.44922 3.5391-0.92578 5.25-1.3984 9.0391-2.5 18.387 2.7734 20.898 11.812 2.5117 9.0234-2.7734 18.387-11.812 20.898-1.9375 0.53906-3.9141 1.0625-5.9141 1.5742-1.4141 0.36328-2.8242 0.53906-4.2266 0.53906-7.5703-0.015624-14.473-5.1016-16.434-12.777zm0.96094 126.61-21.363-2.5625c-0.21094-0.53906-0.4375-1.0742-0.66406-1.6016l13.289-16.914c5.3125-6.75 4.7383-16.414-1.3359-22.488l-26.074-26.074c-6.0742-6.0742-15.738-6.6484-22.488-1.3359l-16.914 13.289c-0.53906-0.22656-1.0742-0.44922-1.6133-0.66406l-2.5625-21.352c-1.0234-8.5234-8.2617-14.949-16.852-14.949h-36.875c-8.5859 0-15.824 6.4258-16.852 14.949l-2.5625 21.363c-0.53906 0.21094-1.0742 0.4375-1.6016 0.66406l-16.914-13.289c-6.7617-5.3125-16.414-4.7383-22.488 1.3359l-26.074 26.074c-6.0742 6.0742-6.6484 15.727-1.3359 22.488l13.289 16.914c-0.22656 0.53906-0.44922 1.0742-0.66406 1.6133l-21.352 2.5625c-8.5234 1.0234-14.949 8.2617-14.949 16.852v36.875c0 8.5859 6.4258 15.824 14.949 16.852l21.363 2.5625c0.21094 0.53906 0.4375 1.0742 0.66406 1.6016l-13.289 16.914c-5.3125 6.75-4.7383 16.414 1.3359 22.488l26.074 26.074c6.0742 6.0742 15.738 6.6484 22.488 1.3516l16.914-13.289c0.53906 0.22656 1.0742 0.44922 1.6133 0.66406l2.5625 21.352c1.0234 8.5234 8.2617 14.949 16.852 14.949h36.875c8.5859 0 15.824-6.4258 16.852-14.949l2.5625-21.363c0.53906-0.21094 1.0742-0.4375 1.6016-0.66406l16.914 13.289c6.75 5.3125 16.414 4.7266 22.488-1.3516l26.074-26.074c6.0742-6.0742 6.6484-15.727 1.3359-22.488l-13.289-16.914c0.22656-0.53906 0.44922-1.0742 0.66406-1.6133l21.352-2.5625c8.5234-1.0234 14.949-8.2617 14.949-16.852v-36.875c0-8.6016-6.4219-15.84-14.949-16.852zm-19 38.664-17 2.0391c-6.8516 0.82422-12.523 5.7109-14.352 12.363-1.4609 5.3516-3.6133 10.523-6.375 15.363-3.4258 6-2.8633 13.461 1.3984 18.887l10.586 13.461-4.7695 4.7852-13.477-10.586c-5.4258-4.2734-12.898-4.8125-18.887-1.3984-4.8359 2.75-10 4.8984-15.363 6.375-6.6484 1.8242-11.539 7.5-12.363 14.352l-2.0391 17-6.7461-0.003907-2.0391-17c-0.82422-6.8516-5.7109-12.523-12.363-14.352-5.3516-1.4609-10.523-3.6133-15.363-6.3633-6-3.4258-13.461-2.8633-18.898 1.3984l-13.461 10.578-4.7891-4.7734 10.586-13.477c4.2617-5.4258 4.8242-12.898 1.3984-18.887-2.75-4.8359-4.8984-10-6.375-15.363-1.8242-6.6484-7.5-11.539-14.352-12.363l-17-2.0391v-6.7617l17-2.0391c6.8516-0.82422 12.523-5.7109 14.352-12.363 1.4609-5.3516 3.6133-10.512 6.375-15.363 3.4141-6 2.8633-13.461-1.3984-18.887l-10.586-13.461 4.7891-4.7734 13.477 10.586c5.4258 4.2734 12.898 4.8125 18.887 1.3984 4.8359-2.7617 10.012-4.8984 15.363-6.375 6.6484-1.8242 11.539-7.5 12.363-14.352l2.0391-17h6.7617l2.0391 17c0.82422 6.8516 5.7109 12.523 12.363 14.352 5.3516 1.4609 10.523 3.6133 15.363 6.375 6 3.4141 13.461 2.8633 18.898-1.3984l13.461-10.586 4.7891 4.7734-10.586 13.477c-4.2617 5.4258-4.8242 12.898-1.3984 18.887 2.7617 4.8359 4.8984 10.012 6.375 15.363 1.8242 6.6484 7.5 11.539 14.352 12.363l17 2.0391-0.007813 6.75zm-95.012-63.727c-0.011719 0-0.011719 0 0 0-33.289-0.57422-60.789 26.074-61.336 59.352-0.55078 33.273 26.074 60.789 59.352 61.336 0.33594 0 0.6875 0.011719 1.0234 0.011719 15.738 0 30.602-6.0117 41.938-16.988 11.586-11.211 18.113-26.262 18.375-42.375 0.53516-33.273-26.09-60.785-59.352-61.336zm17.363 79.324c-5.0625 4.8984-11.773 7.5391-18.801 7.4258-14.562-0.23828-26.211-12.273-25.961-26.836 0.23828-14.414 12.039-25.977 26.398-25.977h0.4375c14.562 0.23828 26.199 12.273 25.961 26.836-0.10938 7.0625-2.9727 13.641-8.0352 18.551zm-259.06-175.06h-129.38c-3.7734-7.6758-10.012-13.914-17.688-17.688v-29.012c0-9.375-7.6016-16.977-16.977-16.977s-16.977 7.6016-16.977 16.977v29.012c-12.812 6.3008-21.664 19.449-21.664 34.648 0 21.301 17.336 38.637 38.637 38.637 15.211 0 28.363-8.8633 34.648-21.664h129.36c9.375 0 16.977-7.6016 16.977-16.977 0.003906-9.3672-7.582-16.957-16.945-16.957zm-164.03 21.664c-2.5508 0-4.6875-2.1484-4.6875-4.6875 0-2.5391 2.1367-4.6875 4.6758-4.6875h0.011719 0.011718c2.5391 0.011719 4.6758 2.1484 4.6758 4.6875v0.011719 0.011719c0 2.5117-2.1484 4.6641-4.6875 4.6641zm826.43-39.352v-29.012c0-9.375-7.6016-16.977-16.977-16.977s-16.977 7.6016-16.977 16.977v29.012c-7.6758 3.7734-13.914 10.012-17.688 17.688h-129.38c-9.375 0-16.977 7.6016-16.977 16.977s7.6016 16.977 16.977 16.977h129.38c6.3008 12.812 19.449 21.664 34.648 21.664 21.301 0 38.637-17.336 38.637-38.637 0.019531-15.219-8.832-28.367-21.645-34.668zm-16.973 39.352c-2.5508 0-4.6875-2.1484-4.6875-4.6875 0-2.5391 2.1367-4.6875 4.6758-4.6875h0.011718 0.011719c2.5391 0.011719 4.6758 2.1484 4.6758 4.6875 0.011719 2.5352-2.1406 4.6875-4.6875 4.6875z"/>
</svg>
