<?xml version="1.0" encoding="UTF-8"?>
<svg width="1200pt" height="1200pt" version="1.1" viewBox="0 0 1200 1200" xmlns="http://www.w3.org/2000/svg">
 <g>
  <path d="m1055.3 70.59h-910.59c-60 0-109.41 49.41-109.41 109.41v663.53c0 60.004 49.414 109.41 109.41 109.41h278.82v105.88h-105.88c-21.176 0-35.293 14.117-35.293 35.293 0 21.176 14.117 35.293 35.293 35.293h564.7c21.176 0 35.293-14.117 35.293-35.293 0-21.176-14.117-35.293-35.293-35.293h-105.88v-105.88h278.82c60 0 109.41-49.41 109.41-109.41l0.003906-102.36v-561.18c0-60-49.414-109.41-109.41-109.41zm-949.41 109.41c0-21.176 17.648-38.824 38.824-38.824h910.59c21.172 0 38.82 17.648 38.82 38.824v525.88h-988.23zm600 878.82h-211.77v-105.88h211.77zm388.23-215.29c0 21.176-17.648 38.824-38.824 38.824h-910.59c-21.172-0.003907-38.82-17.648-38.82-38.824v-67.062h988.23z"/>
  <path d="m794.12 292.94c-14.117-14.117-35.293-14.117-49.41 0-14.117 14.117-14.117 35.293 0 49.41l81.176 81.176-81.176 81.176c-14.117 14.117-14.117 35.293 0 49.41 14.117 14.117 35.293 14.117 49.41 0l105.88-105.88c14.117-14.117 14.117-35.293 0-49.41z"/>
  <path d="m455.29 292.94c-14.117-14.117-35.293-14.117-49.41 0l-105.88 105.88c-14.117 14.117-14.117 35.293 0 49.41l105.88 105.88c14.117 14.117 35.293 14.117 49.41 0 14.117-14.117 14.117-35.293 0-49.41l-81.176-81.176 81.176-81.176c14.117-14.121 14.117-35.297 0-49.414z"/>
  <path d="m684.71 211.77c-17.648-7.0586-38.824 3.5312-45.883 21.176l-116.47 321.18c-7.0586 17.648 3.5312 38.824 21.176 45.883 17.648 7.0586 38.824-3.5312 45.883-21.176l116.47-321.18c7.0586-17.648-3.5312-38.824-21.176-45.883z"/>
 </g>
</svg>
