<?xml version="1.0" encoding="UTF-8"?>
<svg width="1200pt" height="1200pt" version="1.1" viewBox="0 0 1200 1200" xmlns="http://www.w3.org/2000/svg">
 <path d="m749.32 534.87h156.17c8.6719 0 15.699-7.0273 15.699-15.699s-7.0273-15.699-15.699-15.699h-156.17c-8.6719 0-15.699 7.0273-15.699 15.699s7.0273 15.699 15.699 15.699m156.17 89.355h-91.98c-8.6719 0-15.711 7.0273-15.711 15.699s7.0391 15.699 15.711 15.699h91.98c8.6719 0 15.699-7.0273 15.699-15.699s-7.0273-15.699-15.699-15.699m-156.17-28.984h156.17c8.6719 0 15.699-7.0273 15.699-15.699 0-8.6719-7.0273-15.699-15.699-15.699h-156.17c-8.6719 0-15.699 7.0273-15.699 15.699 0 8.6719 7.0273 15.699 15.699 15.699m232.8-351.39c0-40.59-33.02-73.609-73.609-73.609-40.602 0-73.621 33.02-73.621 73.609s33.02 73.621 73.621 73.621c40.59 0 73.609-33.031 73.609-73.621m31.395 0c0 57.91-47.105 105.02-105 105.02-57.91 0-105.02-47.109-105.02-105.02 0-57.898 47.109-105.01 105.02-105.01 57.898 0 105 47.109 105 105.01m65.172-15.191c-21.895-1.2734-40.465-14.438-48.988-35-8.5234-20.57-4.7031-43.012 9.8984-59.406l-21.504-21.488c-16.379 14.586-38.82 18.422-59.395 9.8984-20.559-8.5234-33.734-27.094-34.996-49.004h-30.395c-1.2617 21.91-14.438 40.48-35 49.004-20.574 8.5234-43.016 4.6992-59.395-9.8984l-21.5 21.488c14.598 16.395 18.422 38.836 9.8984 59.406-8.5234 20.562-27.094 33.727-48.992 35v30.395c21.898 1.2617 40.469 14.426 48.992 35 8.5234 20.559 4.6992 43.012-9.8984 59.391l21.5 21.504c16.395-14.609 38.848-18.445 59.406-9.9336 20.562 8.5234 33.727 27.105 34.988 49.027h30.395c1.2617-21.898 14.438-40.48 34.996-48.992 20.574-8.5234 43.016-4.6992 59.395 9.8984l21.504-21.504c-14.602-16.379-18.422-38.832-9.8984-59.391 8.5234-20.574 27.094-33.738 48.988-35zm-87.797 605v-48.285h-869.58v48.285c0 27.008 21.969 48.98 48.977 48.98h771.62c27.004 0 48.977-21.973 48.977-48.98m-335.69 80.375h-200.16c-0.76562 43.102-9.4258 90.25-22.898 126.09h247.61c-14.141-36.312-23.422-83.469-24.547-126.09m111.5 157.48h-421.2c-13.051 0-23.664 10.617-23.664 23.668 0 13.062 10.613 23.68 23.664 23.68h421.2c13.055 0 23.668-10.617 23.668-23.68 0-13.051-10.613-23.668-23.668-23.668m-318.64-561.05c-137.67 0-250.58 107.86-258.72 243.52h517.41c-8.1289-135.65-121.04-243.52-258.69-243.52m-326.75-194v437.52h36.566c8.1797-152.97 135.19-274.91 290.18-274.91 154.97 0 281.99 121.95 290.16 274.91h252.67v-359.74c-6.2109-2.8828-13.312-3.0195-20.176-0.17188-9.8359 4.0703-15.711 12.852-15.711 23.469 0 15.387-12.52 27.906-27.91 27.906h-37.176c-15.391 0-27.91-12.52-27.91-27.906 0-10.641-5.875-19.426-15.711-23.508-9.8359-4.0703-20.191-2.0039-27.723 5.5195-5.2695 5.2695-12.273 8.1758-19.734 8.1758-7.457 0-14.461-2.9062-19.73-8.1758l-26.289-26.289c-10.887-10.887-10.887-28.59 0-39.477 7.5078-7.5078 9.5625-17.863 5.4805-27.711-4.0703-9.8359-12.852-15.711-23.469-15.711-13.668 0-25.051-9.8867-27.438-22.875h-66.594v8.4258c0 8.6719-7.0273 15.699-15.699 15.699h-34.344c0.027344 0.96484 0.050782 1.9297 0.050782 2.8945 0 78.703-64.035 142.75-142.75 142.75-78.719 0-142.75-64.047-142.75-142.75 0-0.96484 0.035156-1.9297 0.046875-2.8945h-34.34c-8.6719 0-15.699-7.0273-15.699-15.699v-8.4258h-85.027c-27.008 0-48.977 21.973-48.977 48.977m198.79-104.51h255.91c-11.133-34.391-36.035-63.301-68.41-79.41v39.094c0 8.6719-7.0273 15.699-15.699 15.699s-15.699-7.0273-15.699-15.699v-79.359c0-10.258-8.3398-18.609-18.594-18.609h-19.09c-10.27 0-18.605 8.3516-18.605 18.609v79.359c0 8.6719-7.0273 15.699-15.699 15.699s-15.699-7.0273-15.699-15.699v-39.094c-32.352 16.109-57.266 45.055-68.414 79.41m289.3 48.262v-16.852h-309.3-0.023437-0.023438-13.336v16.852zm-50.043 31.398h-222.61c-0.023437 0.96484-0.046875 1.9297-0.046875 2.8945 0 61.398 49.953 111.35 111.35 111.35 61.398 0 111.35-49.953 111.35-111.35 0-0.96484-0.023437-1.9297-0.050781-2.8945m550.74-66.336v37.176c0 15.391-12.531 27.91-27.922 27.91-10.613 0-19.383 5.875-23.465 15.711-4.0859 9.8477-2.0312 20.203 5.4805 27.711 10.887 10.887 10.887 28.59 0 39.477l-26.289 26.289c-4.2812 4.293-9.7266 6.9766-15.613 7.8438v426.27c0 44.328-36.051 80.375-80.375 80.375h-255.32c1.3242 47.617 13.621 96.211 27.23 126.09h52.871c30.359 0 55.066 24.703 55.066 55.062 0 30.371-24.707 55.074-55.066 55.074h-421.2c-30.359 0-55.062-24.703-55.062-55.074 0-30.359 24.703-55.062 55.062-55.062h52.715c13-29.383 24.543-77.816 25.41-126.09h-253.34c-44.328 0-80.387-36.047-80.387-80.375v-517.2c0-44.312 36.059-80.375 80.387-80.375h85.027v-8.4375c0-8.6602 7.0273-15.699 15.699-15.699h16.352c13.227-52.168 50.688-94.391 101.15-113.7v-5.9727c0-27.578 22.43-50.004 50.004-50.004h19.09c27.562 0 49.992 22.426 49.992 50.004v5.9844c49.766 19.227 87.871 62.152 101.13 113.69h16.367c8.6719 0 15.699 7.0391 15.699 15.699v8.4375h66.121v-10.812c0-15.391 12.52-27.91 27.91-27.91 10.617 0 19.398-5.875 23.469-15.723 4.082-9.8359 2.0273-20.203-5.4805-27.711-10.887-10.875-10.887-28.59 0-39.465l26.289-26.301c5.2695-5.2695 12.273-8.1641 19.73-8.1641 7.4609 0 14.465 2.8945 19.734 8.1641 7.5078 7.5078 17.875 9.5625 27.711 5.4922 9.8477-4.082 15.723-12.852 15.723-23.48 0-15.387 12.52-27.906 27.91-27.906h37.176c15.391 0 27.91 12.52 27.91 27.906 0 10.629 5.875 19.398 15.711 23.48 9.8477 4.0703 20.199 2.0312 27.723-5.4922 10.875-10.875 28.578-10.875 39.465 0l26.289 26.289c10.887 10.887 10.887 28.602 0 39.477-7.5117 7.5078-9.5664 17.875-5.4805 27.711 4.082 9.8477 12.852 15.723 23.465 15.723 15.391 0 27.922 12.52 27.922 27.91m-502.74 608.73c0 8.6719-7.0234 15.699-15.699 15.699h-71.121c-8.6719 0-15.699-7.0273-15.699-15.699s7.0273-15.699 15.699-15.699h71.121c8.6758 0 15.699 7.0273 15.699 15.699"/>
</svg>
